<svg width="400" height="300" viewBox="0 0 400 300" fill="none" xmlns="http://www.w3.org/2000/svg">
  <rect x="70" y="220" width="260" height="2" fill="#F59E0B" />
  <rect x="70" y="60" width="2" height="160" fill="#F59E0B" />
  <rect x="100" y="140" width="30" height="80" rx="4" fill="#FEF3C7" />
  <rect x="140" y="120" width="30" height="100" rx="4" fill="#FDE68A" />
  <rect x="180" y="100" width="30" height="120" rx="4" fill="#FCD34D" />
  <rect x="220" y="80" width="30" height="140" rx="4" fill="#FBBF24" />
  <rect x="260" y="60" width="30" height="160" rx="4" fill="#F59E0B" />
  <circle cx="115" cy="140" r="8" fill="#F59E0B" />
  <circle cx="155" cy="120" r="8" fill="#F59E0B" />
  <circle cx="195" cy="100" r="8" fill="#F59E0B" />
  <circle cx="235" cy="80" r="8" fill="#F59E0B" />
  <circle cx="275" cy="60" r="8" fill="#F59E0B" />
  <path d="M115 140L155 120L195 100L235 80L275 60" stroke="#F59E0B" stroke-width="2" stroke-dasharray="4 4" />
</svg>