<svg width="400" height="300" viewBox="0 0 400 300" fill="none" xmlns="http://www.w3.org/2000/svg">
  <rect x="80" y="60" width="240" height="180" rx="8" fill="#E0F2FE" />
  <rect x="80" y="60" width="240" height="40" rx="8" fill="#0EA5E9" />
  <rect x="100" y="120" width="40" height="30" rx="4" fill="white" stroke="#0EA5E9" stroke-width="2" />
  <rect x="150" y="120" width="40" height="30" rx="4" fill="white" stroke="#0EA5E9" stroke-width="2" />
  <rect x="200" y="120" width="40" height="30" rx="4" fill="white" stroke="#0EA5E9" stroke-width="2" />
  <rect x="250" y="120" width="40" height="30" rx="4" fill="#0EA5E9" stroke="#0EA5E9" stroke-width="2" />
  <rect x="100" y="160" width="40" height="30" rx="4" fill="white" stroke="#0EA5E9" stroke-width="2" />
  <rect x="150" y="160" width="40" height="30" rx="4" fill="white" stroke="#0EA5E9" stroke-width="2" />
  <rect x="200" y="160" width="40" height="30" rx="4" fill="#0EA5E9" stroke="#0EA5E9" stroke-width="2" />
  <rect x="250" y="160" width="40" height="30" rx="4" fill="white" stroke="#0EA5E9" stroke-width="2" />
  <rect x="100" y="200" width="40" height="30" rx="4" fill="#0EA5E9" stroke="#0EA5E9" stroke-width="2" />
  <rect x="150" y="200" width="40" height="30" rx="4" fill="white" stroke="#0EA5E9" stroke-width="2" />
  <rect x="200" y="200" width="40" height="30" rx="4" fill="white" stroke="#0EA5E9" stroke-width="2" />
  <circle cx="270" cy="80" r="15" fill="white" />
  <path d="M270 73V80M270 87V80M263 80H270M277 80H270" stroke="#0EA5E9" stroke-width="2" stroke-linecap="round" />
</svg>